<svg width="511" height="133" viewBox="0 0 511 133" fill="none" xmlns="http://www.w3.org/2000/svg">
<path d="M31.8518 25.5857L23.5791 53.884H51.5545L46.8741 69.893H0.365234L13.333 25.5857H31.8518Z" fill="black"/>
<path d="M62.475 16.5303L67.1312 0.601807H20.6458L15.8782 16.5303H62.475Z" fill="black"/>
<path d="M342.197 69.893H323.663L336.632 25.5857H355.166H389.366L376.452 69.893H357.897L367.045 38.5219L354.636 27.3953L342.197 69.893Z" fill="black"/>
<path d="M392.016 16.5303H339.283L343.92 0.683025H362.454L374.188 14.1167L378.11 0.601807H396.787L392.016 16.5303Z" fill="black"/>
<path d="M456.364 69.893H437.831L450.8 25.5857H469.333H503.533L490.62 69.893H472.064L481.212 38.5219L468.804 27.3953L456.364 69.893Z" fill="black"/>
<path d="M506.183 16.5303H453.45L458.088 0.683025H476.621L488.356 14.1167L492.277 0.601807H510.954L506.183 16.5303Z" fill="black"/>
<path d="M429.898 69.893H384.121L397.111 25.5857H415.626L407.393 53.7121L416.135 53.884L424.418 25.5857H442.952L429.898 69.893Z" fill="black"/>
<path d="M418.276 16.5303H399.743L404.405 0.601807H450.265L445.664 16.5303H427.17L428.785 10.668H419.992L418.276 16.5303Z" fill="black"/>
<path d="M204.856 16.5303L202.052 0.601807H183.518L186.323 16.5303H204.856Z" fill="black"/>
<path d="M227.665 16.5303L237.193 0.601807H255.727L246.193 16.5303H227.665Z" fill="black"/>
<path d="M240.834 25.4829L214.252 69.8929H195.718L187.917 25.5856H206.451L210.044 45.9884L222.248 25.5856L240.834 25.4829Z" fill="black"/>
<path d="M258.71 69.8929H240.177L253.146 25.5856H271.68L258.71 69.8929Z" fill="black"/>
<path d="M274.33 16.5303H255.797L260.434 0.682983H278.968L274.33 16.5303Z" fill="black"/>
<path d="M73.0513 69.8118H54.5172L67.4863 25.5045H119.141L106.16 69.8118H87.6267L96.8035 38.4649H82.2268L73.0513 69.8118Z" fill="black"/>
<path d="M88.8026 16.4491H70.2692L74.9066 0.601807H93.4407L88.8026 16.4491Z" fill="black"/>
<path d="M121.913 16.4491H103.379L108.017 0.601807H126.551L121.913 16.4491Z" fill="black"/>
<path d="M176.12 16.5303L180.777 0.601807H134.291L129.524 16.5303H176.12Z" fill="black"/>
<path d="M166.864 25.5857L163.082 38.5219H141.467L136.977 53.884H164.952L160.272 69.893H113.763L126.73 25.5857H166.864Z" fill="black"/>
<path d="M331.556 16.5303L330.385 0.601807H286.842L282.074 16.5303H331.556Z" fill="black"/>
<path d="M315.542 69.893H266.568L279.537 25.5857H298.071L289.826 53.7517L301.691 53.884L306.189 38.5219H324.724L315.542 69.893Z" fill="black"/>
<path d="M276.653 65.365L276.9 65.1965C281.434 62.1029 285.907 59.2254 289.975 55.3639L289.988 55.3525L289.999 55.3384C290.211 55.0847 290.659 55.2203 290.696 54.4672L290.71 54.1544L290.428 54.1363C289.275 54.0611 288.144 53.896 287.002 53.7034L286.917 53.6886L286.84 53.7282C285.614 54.3544 284.337 54.8498 283.106 55.4666C279.7 56.7265 276.959 59.5201 275.618 63.2232L275.604 63.2621L275.599 63.3037C275.505 64.2092 276.185 64.483 276.506 65.0878L276.653 65.365Z" fill="#CF001B"/>
<path d="M454.819 60.9471C454.502 60.0511 454.48 58.9939 453.934 58.2093L453.854 58.0931L453.722 58.0864C451.657 57.9804 449.528 58.0113 447.462 58.0388C443.469 58.0918 439.473 58.2495 435.485 58.4791C423.654 59.1604 411.792 60.4873 400.09 62.5352C381.357 65.7906 363.028 70.33 344.92 76.5467C345.857 75.3278 346.767 74.0619 347.665 72.8202C348.483 71.6905 349.296 70.5555 350.099 69.4118C350.519 68.8131 351.06 68.1009 351.42 67.4626C351.705 67.0068 352.594 65.7973 352.477 65.2375L352.458 65.1442L352.394 65.0784C351.965 64.6348 351.789 63.9461 351.178 63.7024L351.101 63.6716C351.34 63.5085 351.559 63.3588 351.697 63.2923C352.142 63.0467 353.205 62.8493 353.205 62.2124V62.1728L353.196 62.1345C352.988 61.2344 352.589 60.3504 351.936 59.7477C350.891 58.7845 347.885 59.1248 346.638 59.2402C340.467 59.8759 334.563 61.9492 328.712 64.0985C325.938 65.2556 323.207 66.5403 320.475 67.7955C317.326 69.2252 314.193 70.7529 311.057 72.2228C309.166 73.1088 307.274 73.9921 305.376 74.8587C304.24 75.3775 303.057 75.9406 301.895 76.391C304.157 72.8611 307.398 70.3038 310.247 67.4015C310.624 66.9726 310.714 66.1269 310.482 65.6047L310.475 65.5892L310.466 65.5745C310.266 65.2261 310.21 64.5301 309.888 64.3824L309.803 64.3434L309.714 64.3669C309.211 64.4972 308.431 64.4851 307.887 64.5542C306.574 64.7214 305.298 65.0898 304.051 65.5664C301.713 66.396 299.294 67.6371 297.041 68.952C297.862 68.1022 298.715 67.2881 299.541 66.4511C299.948 66.0181 299.735 65.2523 299.921 64.9838L299.986 64.8898L299.98 64.7717C299.939 64.0575 299.551 63.493 299.041 63.091C298.818 62.9158 298.265 62.5715 297.982 62.5715H297.967L297.951 62.5735C296.834 62.7104 295.592 63.0809 294.532 63.5051C290.173 65.3301 285.9 67.5579 281.731 69.8541C277.966 71.9281 274.248 74.1015 270.531 76.2783C267.511 78.0476 264.478 79.8545 261.399 81.4949C261.305 81.5453 261.134 81.6453 260.956 81.7332C263.418 77.1421 267.345 73.3129 271.52 70.7421C271.75 70.6012 272.245 70.1676 272.192 69.7984C272.245 68.9137 272.006 68.2184 271.505 67.5331C271.096 66.9256 270.581 66.9679 269.986 66.8618L269.897 66.8457L269.816 66.89C267.795 67.9854 265.789 69.1882 263.797 70.3494C260.714 72.1476 257.632 73.9471 254.539 75.7238C252.287 77.0166 250.029 78.2999 247.758 79.5538C242.146 82.6836 236.237 86.0216 230.285 88.2601C233.663 81.7151 239.422 76.6837 245.383 73.2471C247.159 72.2329 250.36 70.583 252.431 70.583C252.867 70.583 253.382 70.6924 253.788 70.8777L253.809 70.8871L253.831 70.8925C254.076 70.9562 254.286 70.8824 254.486 70.7213L254.518 70.6951L254.543 70.6602C255.227 69.6943 255.676 69.2956 255.985 68.0069L256.01 67.9002L255.97 67.7988C255.911 67.6512 256.231 66.9632 256.138 66.4021L256.117 66.2826L256.05 66.2255C255.968 66.102 255.899 66.004 255.754 65.9872C253.045 65.2422 250.39 65.949 247.781 66.7927C240.668 69.2701 234.107 72.0496 227.511 75.9447C221.448 79.5236 215.645 83.5965 209.978 87.8929C210.856 86.6418 211.96 85.3832 212.837 84.3516C214.106 82.8575 216.084 80.7324 217.01 79.0027L217.087 78.8584L217.022 78.7067C216.725 78.0147 216.172 77.5703 215.656 77.0924L215.494 76.9421L215.318 77.0703C208.485 82.0413 201.824 87.3291 194.81 91.9893C193.65 92.8209 192.423 93.7022 191.221 94.4419C191.067 94.5298 190.284 95.0145 190.125 94.954C190.006 94.6372 190.958 93.323 191.129 93.0921C192.858 90.7556 195.029 88.0097 197.174 86.1511C199.708 83.6072 203.303 81.5197 206.381 79.8806C208.806 78.6604 211.096 78.155 213.72 77.8059L213.816 77.7932L213.886 77.7173C214.687 76.8374 215.724 76.7515 216.462 75.5923C216.611 75.4184 216.709 75.1325 216.673 74.8989C216.529 74.0163 215.945 73.3082 215.216 72.9578C214.253 72.4745 213.304 72.4617 212.272 72.6584C210.121 73.0786 207.639 74.0586 205.593 74.8909C201.684 76.4823 197.84 78.3731 194.112 80.4263C187.965 83.8502 181.919 87.8197 176.077 91.8403C170.935 95.3782 165.837 99.0639 160.895 102.936C157.544 101.44 154.201 99.9217 150.846 98.4383C154.814 96.5368 158.762 94.3835 162.617 92.2356C166.62 90.0059 170.714 87.6848 174.564 85.1456C180.847 81.0284 186.514 76.8038 190.746 70.0924C192.288 67.7035 193.338 64.7744 192.879 61.8009C192.182 57.4266 188.388 55.8238 184.775 55.8238C177.794 55.8238 171.816 58.0904 165.58 61.3297C161.05 63.7145 156.533 66.9645 152.398 70.1004C148.218 73.2706 144.035 76.6602 140.077 80.2082C141.434 78.6315 142.838 77.0904 144.235 75.5688C146.552 73.0464 148.903 70.5589 151.276 68.1022C153.746 65.5463 156.244 63.0158 158.788 60.5504C160.64 58.7549 162.583 56.8809 164.576 55.2814C164.87 55.0458 165.201 54.729 165.345 54.3444C165.577 54.1323 165.593 54.0457 165.735 53.7323C166.076 52.7671 166.386 51.8059 166.756 50.8675L166.807 50.7373L166.568 50.1661L166.295 50.3541C159.833 54.8042 153.997 60.5155 148.324 66.1034C138.236 76.001 129.061 87.4687 120.892 99.329C118.576 102.705 116.14 106.102 114.192 109.758C113.717 110.625 113.236 111.599 112.882 112.538C112.227 114.482 111.633 116.597 111.446 118.659L111.445 118.674V118.69C111.445 119.002 111.501 118.932 111.595 119.07L111.718 119.269L111.925 119.186C112.369 119.008 112.834 118.999 113.293 118.927C113.466 118.918 113.537 118.811 113.617 118.67L113.632 118.661L113.674 118.598C114.438 117.424 115.173 116.23 115.908 115.033C117.671 112.161 119.444 109.476 121.437 106.787C126.291 100.265 131.336 94.0197 137.018 88.3627C141.443 83.9576 146.152 80.0015 151.035 76.2434C159.225 69.9226 168.2 63.6709 178.215 61.8479C180.832 61.3499 185.96 61.0612 187.454 64.1837C189.088 67.7633 185.513 72.0516 183.294 74.2418C181.728 75.8238 179.691 77.2394 177.877 78.4409C175.017 80.3351 172.033 82.056 169.048 83.6945C160.663 88.297 151.949 92.3967 143.265 96.2522L143.22 96.2723L139.998 99.4431L139.984 99.5592C139.948 99.866 140.007 100.161 140.307 100.258C145.895 102.511 151.453 104.867 157.028 107.189C156.52 107.731 155.915 108.176 155.508 108.828L155.478 108.876L155.465 108.933C155.081 110.687 154.835 112.437 154.835 114.246V114.289L154.846 114.331C154.97 114.827 154.467 115.302 154.862 115.933L154.993 116.144L155.206 116.044C157.747 114.855 159.301 111.115 161.431 109.128C176.168 115.337 190.719 121.536 204.815 129.411C205.616 129.863 206.419 130.328 207.228 130.764L207.245 130.774L207.264 130.781C208.444 131.206 209.707 131.581 210.834 132.155C211.131 132.313 211.487 132.225 211.615 131.865L211.654 131.755L211.617 131.643C211.312 130.702 210.539 129.121 209.982 128.295C209.813 127.911 209.071 127.163 208.776 126.987C207.042 126.008 205.311 125.03 203.582 124.048C193.819 118.375 183.667 113.174 173.471 108.532C170.963 107.39 168.442 106.282 165.907 105.214C168.853 102.656 171.981 100.249 175.096 97.957C180.363 94.0714 185.852 90.3791 191.39 86.9512C188.694 90.3838 185.98 94.3177 184.678 98.5511L184.499 99.284C184.413 99.7344 184.462 100.209 184.49 100.654L184.492 100.684L184.499 100.712C184.687 101.512 184.829 102.3 185.483 102.797L185.508 102.816L185.536 102.829C186.209 103.135 187.351 102.674 187.962 102.298C193.891 99.2686 199.111 94.7487 204.354 90.4677C203.748 91.5651 203.258 92.686 202.701 93.8613C202.441 94.509 201.807 96.5475 201.931 97.2429C201.979 97.4644 202.528 98.1665 202.688 98.3752C203.152 98.9927 203.742 99.0008 204.317 98.543C206.727 96.3428 209.255 94.264 211.79 92.2605C214.772 89.9025 217.84 87.5841 220.963 85.4604C224.777 82.834 228.662 80.4854 232.708 78.3322C233.034 78.1637 233.365 77.9939 233.701 77.8294C230.899 81.0747 226.59 86.533 225.729 90.1535C225.544 90.9838 225.079 93.0471 225.484 93.8016C226.027 94.9809 226.933 94.8836 228.005 94.7124C229.378 94.5285 231.85 93.3525 233.143 92.7558C236.308 91.2946 239.43 89.634 242.477 87.8922C247.996 84.7704 253.347 81.4976 258.657 77.959C259.3 77.5307 259.943 77.0998 260.584 76.6682C260.046 77.4394 259.528 78.2302 259.026 79.0229C258.021 80.6123 256.87 82.5031 256.146 84.269C255.797 85.155 255.305 86.6538 255.617 87.6049C255.972 88.5654 256.838 88.6037 257.624 88.6037C258.496 88.5581 259.484 88.1594 260.257 87.7365C265.134 84.9215 269.968 82.0091 274.818 79.1423C278.253 77.1126 281.694 75.0929 285.163 73.137C287.513 71.8127 289.901 70.4844 292.316 69.2863C289.454 72.6537 286.838 76.3138 284.037 79.7417L283.963 79.8317V79.9525C283.963 80.7606 283.914 81.5667 283.914 82.3742C283.914 82.8534 284.423 83.0642 284.777 82.9031L284.822 82.883L284.858 82.8474C287.117 80.6291 289.867 78.7396 292.478 77.0723C295.387 75.2151 298.39 73.5545 301.32 71.757C299.87 73.7686 298.394 75.7191 297.263 78.012C296.832 78.7772 296.12 80.4424 296.316 81.3754C296.598 82.5453 297.501 82.6991 298.47 82.7279C299.603 82.8071 301.016 82.2064 302.028 81.6661C303.658 80.8707 305.274 79.9699 306.879 79.1C307.515 78.755 310.273 77.2032 311.853 76.4588C310.365 78.2697 308.698 80.7579 308.024 82.7796C307.112 85.402 308.394 87.611 310.921 87.611C317.069 87.7311 324.358 83.6837 329.89 80.9143C334.268 78.7087 338.829 76.0574 342.965 73.1927C341.202 75.5272 339.256 77.6965 337.356 79.888C327.156 84.8637 317.112 90.3079 308.12 97.6798C300.28 104.083 290.94 112.683 286.427 122.399C285.974 123.43 285.462 124.511 285.074 125.565C284.845 126.376 284.628 127.954 285.378 128.517C286.672 129.503 288.5 128.27 289.675 127.54C292.57 125.796 295.388 123.805 298.119 121.76C301.746 119.044 305.281 116.161 308.737 113.184C313.597 108.98 318.303 104.513 322.906 99.9687C328.078 94.8614 333.143 89.6119 338.123 84.2751C345.345 81.4023 352.651 78.8369 360.052 76.5917C373.659 72.4638 387.475 69.4581 401.377 66.8484C412.816 64.7462 424.418 63.2695 435.983 62.3372C440.009 62.013 444.047 61.7506 448.082 61.6063C450.12 61.5331 452.429 61.4116 454.46 61.574L454.586 61.5841L454.676 61.4875C454.78 61.3787 454.797 61.3103 454.823 61.1659L454.86 61.0572L454.819 60.9471ZM308.059 108.63C306.931 109.606 305.787 110.561 304.633 111.499C301.511 114.033 298.284 116.486 294.993 118.742C294.006 119.418 291.549 121.121 289.984 121.841C292.506 118.258 295.827 114.742 298.806 111.734C301.832 108.678 305.045 105.656 308.352 102.98C314.265 98.2369 320.719 93.8761 327.24 90.1448C321.08 96.5549 314.715 102.887 308.059 108.63ZM314.629 81.8413C312.852 82.2708 312.401 80.9304 313.912 79.039C325.292 68.7647 337.49 65.2469 349.986 64.1736C338.354 71.8489 326.581 77.8791 314.629 81.8413Z" fill="#CF001B"/>
</svg>
