<svg width="157" height="91" viewBox="0 0 157 91" fill="none" xmlns="http://www.w3.org/2000/svg">
<path d="M48.8184 12.5226H107.368V59.4703L78.4258 76.2849L48.8184 59.4703V12.5226Z" fill="url(#paint0_linear_861_1658)"/>
<path d="M48.8184 12.5226H107.368V59.4703L78.4258 76.2849L48.8184 59.4703V12.5226Z" fill="url(#paint1_linear_861_1658)"/>
<path d="M48.8184 12.5226H107.368V59.4703L78.4258 76.2849L48.8184 59.4703V12.5226Z" fill="url(#paint2_linear_861_1658)"/>
<path d="M48.8184 12.5226H107.368V59.4703L78.4258 76.2849L48.8184 59.4703V12.5226Z" fill="url(#paint3_linear_861_1658)"/>
<path fill-rule="evenodd" clip-rule="evenodd" d="M150.262 15.9822H6.125L21.02 44.9674H27.2104L32.3696 55.8736H124.148L129.307 44.9674H135.137L150.262 15.9822Z" fill="url(#paint4_linear_861_1658)"/>
<path d="M14.127 20.9199H141.999L136.957 30.3758L18.8087 30.0157L14.127 20.9199Z" fill="url(#paint5_linear_861_1658)"/>
<path d="M21.666 34.3263H134.584L131.596 40.541H24.5246L21.666 34.3263Z" fill="url(#paint6_linear_861_1658)"/>
<path d="M32.4727 44.9666H124.503L121.515 51.1813H35.3313L32.4727 44.9666Z" fill="url(#paint7_linear_861_1658)"/>
<path d="M40.125 3.59912H116.452V64.5153L78.7221 86.3328L40.125 64.5153V3.59912Z" fill="url(#paint8_linear_861_1658)"/>
<path d="M40.125 3.59912H116.452V64.5153L78.7221 86.3328L40.125 64.5153V3.59912Z" fill="url(#paint9_linear_861_1658)"/>
<path d="M40.125 3.59912H116.452V64.5153L78.7221 86.3328L40.125 64.5153V3.59912Z" fill="url(#paint10_linear_861_1658)"/>
<path d="M40.125 3.59912H116.452V64.5153L78.7221 86.3328L40.125 64.5153V3.59912Z" fill="url(#paint11_linear_861_1658)"/>
<path d="M44.9785 8.45532H111.369V61.8052L78.5508 80.9128L44.9785 61.8052V8.45532Z" fill="url(#paint12_linear_861_1658)"/>
<path d="M44.9785 8.45532H111.369V61.8052L78.5508 80.9128L44.9785 61.8052V8.45532Z" fill="url(#paint13_linear_861_1658)"/>
<path d="M44.9785 8.45532H111.369V61.8052L78.5508 80.9128L44.9785 61.8052V8.45532Z" fill="url(#paint14_linear_861_1658)"/>
<path d="M44.9785 8.45532H111.369V61.8052L78.5508 80.9128L44.9785 61.8052V8.45532Z" fill="url(#paint15_linear_861_1658)"/>
<path d="M48.8184 12.5211H107.368V59.4688L78.4258 76.2834L48.8184 59.4688V12.5211Z" fill="url(#paint16_linear_861_1658)"/>
<path d="M48.8184 12.5211H107.368V59.4688L78.4258 76.2834L48.8184 59.4688V12.5211Z" fill="url(#paint17_linear_861_1658)"/>
<path d="M48.8184 12.5211H107.368V59.4688L78.4258 76.2834L48.8184 59.4688V12.5211Z" fill="url(#paint18_linear_861_1658)"/>
<path d="M48.8184 12.5211H107.368V59.4688L78.4258 76.2834L48.8184 59.4688V12.5211Z" fill="url(#paint19_linear_861_1658)"/>
<path d="M53.3672 16.9916H101.9V56.3101L77.9093 70.3922L53.3672 56.3101V16.9916Z" fill="url(#paint20_linear_861_1658)"/>
<path d="M53.3672 16.9916H101.9V56.3101L77.9093 70.3922L53.3672 56.3101V16.9916Z" fill="url(#paint21_linear_861_1658)"/>
<path d="M53.3672 16.9916H101.9V56.3101L77.9093 70.3922L53.3672 56.3101V16.9916Z" fill="url(#paint22_linear_861_1658)"/>
<path d="M53.3672 16.9916H101.9V56.3101L77.9093 70.3922L53.3672 56.3101V16.9916Z" fill="url(#paint23_linear_861_1658)"/>
<path fill-rule="evenodd" clip-rule="evenodd" d="M79.0409 90.4832L36.8222 66.6186V59.4757H30.3835L25.2242 48.5694H19.1159L0.519531 12.3816H36.8222V-0.00012207H120.352V12.3816H156.498L137.614 48.5694H131.881L126.722 59.4757H120.352V66.595L79.0409 90.4832ZM129.601 44.9681H135.431L150.556 15.9829H116.75V3.6012H40.4235V15.9829H6.4192L21.3142 44.9681H27.5045L32.6638 55.8744H40.4235V64.5174L79.0206 86.3349L116.75 64.5174V55.8744H124.442L129.601 44.9681Z" fill="url(#paint24_linear_861_1658)"/>
<defs>
<linearGradient id="paint0_linear_861_1658" x1="78.0931" y1="12.5226" x2="78.0931" y2="76.2849" gradientUnits="userSpaceOnUse">
<stop stop-color="#1C0A00"/>
<stop offset="0.25" stop-color="#2C1002"/>
<stop offset="0.5" stop-color="#421A06"/>
<stop offset="0.75" stop-color="#2C1002"/>
<stop offset="1" stop-color="#170800"/>
</linearGradient>
<linearGradient id="paint1_linear_861_1658" x1="78.0931" y1="12.5226" x2="78.0931" y2="76.2849" gradientUnits="userSpaceOnUse">
<stop stop-color="#1C0A00"/>
<stop offset="0.25" stop-color="#2C1002"/>
<stop offset="0.5" stop-color="#421A06"/>
<stop offset="0.75" stop-color="#2C1002"/>
<stop offset="1" stop-color="#170800"/>
</linearGradient>
<linearGradient id="paint2_linear_861_1658" x1="78.0931" y1="12.5226" x2="78.0931" y2="76.2849" gradientUnits="userSpaceOnUse">
<stop stop-color="#1C0A00"/>
<stop offset="0.25" stop-color="#2C1002"/>
<stop offset="0.5" stop-color="#421A06"/>
<stop offset="0.75" stop-color="#2C1002"/>
<stop offset="1" stop-color="#170800"/>
</linearGradient>
<linearGradient id="paint3_linear_861_1658" x1="78.0931" y1="12.5226" x2="78.0931" y2="76.2849" gradientUnits="userSpaceOnUse">
<stop stop-color="#1C0A00"/>
<stop offset="0.25" stop-color="#2C1002"/>
<stop offset="0.5" stop-color="#421A06"/>
<stop offset="0.75" stop-color="#2C1002"/>
<stop offset="1" stop-color="#170800"/>
</linearGradient>
<linearGradient id="paint4_linear_861_1658" x1="78.1936" y1="15.9822" x2="78.1936" y2="55.8736" gradientUnits="userSpaceOnUse">
<stop stop-color="#1C0A00"/>
<stop offset="0.25" stop-color="#2C1002"/>
<stop offset="0.5" stop-color="#421A06"/>
<stop offset="0.75" stop-color="#2C1002"/>
<stop offset="1" stop-color="#170800"/>
</linearGradient>
<linearGradient id="paint5_linear_861_1658" x1="14.127" y1="20.629" x2="14.7943" y2="34.3461" gradientUnits="userSpaceOnUse">
<stop stop-color="#F8AC32"/>
<stop offset="0.520833" stop-color="#FAE373"/>
</linearGradient>
<linearGradient id="paint6_linear_861_1658" x1="21.666" y1="34.1351" x2="21.9928" y2="43.1599" gradientUnits="userSpaceOnUse">
<stop stop-color="#F8AC32"/>
<stop offset="0.520833" stop-color="#FAE373"/>
</linearGradient>
<linearGradient id="paint7_linear_861_1658" x1="32.4727" y1="44.7753" x2="32.8733" y2="53.7942" gradientUnits="userSpaceOnUse">
<stop stop-color="#F8AC32"/>
<stop offset="0.520833" stop-color="#FAE373"/>
</linearGradient>
<linearGradient id="paint8_linear_861_1658" x1="78.2884" y1="3.59912" x2="78.2884" y2="86.3328" gradientUnits="userSpaceOnUse">
<stop stop-color="#1C0A00"/>
<stop offset="0.25" stop-color="#2C1002"/>
<stop offset="0.5" stop-color="#421A06"/>
<stop offset="0.75" stop-color="#2C1002"/>
<stop offset="1" stop-color="#170800"/>
</linearGradient>
<linearGradient id="paint9_linear_861_1658" x1="78.2884" y1="3.59912" x2="78.2884" y2="86.3328" gradientUnits="userSpaceOnUse">
<stop stop-color="#1C0A00"/>
<stop offset="0.25" stop-color="#2C1002"/>
<stop offset="0.5" stop-color="#421A06"/>
<stop offset="0.75" stop-color="#2C1002"/>
<stop offset="1" stop-color="#170800"/>
</linearGradient>
<linearGradient id="paint10_linear_861_1658" x1="78.2884" y1="3.59912" x2="78.2884" y2="86.3328" gradientUnits="userSpaceOnUse">
<stop stop-color="#1C0A00"/>
<stop offset="0.25" stop-color="#2C1002"/>
<stop offset="0.5" stop-color="#421A06"/>
<stop offset="0.75" stop-color="#2C1002"/>
<stop offset="1" stop-color="#170800"/>
</linearGradient>
<linearGradient id="paint11_linear_861_1658" x1="78.2884" y1="3.59912" x2="78.2884" y2="86.3328" gradientUnits="userSpaceOnUse">
<stop stop-color="#1C0A00"/>
<stop offset="0.25" stop-color="#2C1002"/>
<stop offset="0.5" stop-color="#421A06"/>
<stop offset="0.75" stop-color="#2C1002"/>
<stop offset="1" stop-color="#170800"/>
</linearGradient>
<linearGradient id="paint12_linear_861_1658" x1="44.9785" y1="6.22586" x2="94.8936" y2="75.7447" gradientUnits="userSpaceOnUse">
<stop stop-color="#F8AC32"/>
<stop offset="0.520833" stop-color="#FAE373"/>
<stop offset="0.927083" stop-color="#F8AE30"/>
</linearGradient>
<linearGradient id="paint13_linear_861_1658" x1="44.9785" y1="6.22586" x2="94.8936" y2="75.7447" gradientUnits="userSpaceOnUse">
<stop stop-color="#F8AC32"/>
<stop offset="0.520833" stop-color="#FAE373"/>
<stop offset="0.927083" stop-color="#F8AE30"/>
</linearGradient>
<linearGradient id="paint14_linear_861_1658" x1="44.9785" y1="6.22586" x2="94.8936" y2="75.7447" gradientUnits="userSpaceOnUse">
<stop stop-color="#F8AC32"/>
<stop offset="0.520833" stop-color="#FAE373"/>
<stop offset="0.927083" stop-color="#F8AE30"/>
</linearGradient>
<linearGradient id="paint15_linear_861_1658" x1="44.9785" y1="6.22586" x2="94.8936" y2="75.7447" gradientUnits="userSpaceOnUse">
<stop stop-color="#F8AC32"/>
<stop offset="0.520833" stop-color="#FAE373"/>
<stop offset="0.927083" stop-color="#F8AE30"/>
</linearGradient>
<linearGradient id="paint16_linear_861_1658" x1="78.0931" y1="12.5211" x2="78.0931" y2="76.2834" gradientUnits="userSpaceOnUse">
<stop stop-color="#1C0A00"/>
<stop offset="0.25" stop-color="#2C1002"/>
<stop offset="0.5" stop-color="#421A06"/>
<stop offset="0.75" stop-color="#2C1002"/>
<stop offset="1" stop-color="#170800"/>
</linearGradient>
<linearGradient id="paint17_linear_861_1658" x1="78.0931" y1="12.5211" x2="78.0931" y2="76.2834" gradientUnits="userSpaceOnUse">
<stop stop-color="#1C0A00"/>
<stop offset="0.25" stop-color="#2C1002"/>
<stop offset="0.5" stop-color="#421A06"/>
<stop offset="0.75" stop-color="#2C1002"/>
<stop offset="1" stop-color="#170800"/>
</linearGradient>
<linearGradient id="paint18_linear_861_1658" x1="78.0931" y1="12.5211" x2="78.0931" y2="76.2834" gradientUnits="userSpaceOnUse">
<stop stop-color="#1C0A00"/>
<stop offset="0.25" stop-color="#2C1002"/>
<stop offset="0.5" stop-color="#421A06"/>
<stop offset="0.75" stop-color="#2C1002"/>
<stop offset="1" stop-color="#170800"/>
</linearGradient>
<linearGradient id="paint19_linear_861_1658" x1="78.0931" y1="12.5211" x2="78.0931" y2="76.2834" gradientUnits="userSpaceOnUse">
<stop stop-color="#1C0A00"/>
<stop offset="0.25" stop-color="#2C1002"/>
<stop offset="0.5" stop-color="#421A06"/>
<stop offset="0.75" stop-color="#2C1002"/>
<stop offset="1" stop-color="#170800"/>
</linearGradient>
<linearGradient id="paint20_linear_861_1658" x1="53.3672" y1="19.1931" x2="94.3705" y2="61.2718" gradientUnits="userSpaceOnUse">
<stop stop-color="#FDBF2E"/>
<stop offset="0.510417" stop-color="#FDE990"/>
<stop offset="1" stop-color="#F8AC32"/>
</linearGradient>
<linearGradient id="paint21_linear_861_1658" x1="53.3672" y1="19.1931" x2="94.3705" y2="61.2718" gradientUnits="userSpaceOnUse">
<stop stop-color="#FDBF2E"/>
<stop offset="0.510417" stop-color="#FDE990"/>
<stop offset="1" stop-color="#F8AC32"/>
</linearGradient>
<linearGradient id="paint22_linear_861_1658" x1="53.3672" y1="19.1931" x2="94.3705" y2="61.2718" gradientUnits="userSpaceOnUse">
<stop stop-color="#FDBF2E"/>
<stop offset="0.510417" stop-color="#FDE990"/>
<stop offset="1" stop-color="#F8AC32"/>
</linearGradient>
<linearGradient id="paint23_linear_861_1658" x1="53.3672" y1="19.1931" x2="94.3705" y2="61.2718" gradientUnits="userSpaceOnUse">
<stop stop-color="#FDBF2E"/>
<stop offset="0.510417" stop-color="#FDE990"/>
<stop offset="1" stop-color="#F8AC32"/>
</linearGradient>
<linearGradient id="paint24_linear_861_1658" x1="0.519531" y1="-2.78423" x2="44.3481" y2="112.058" gradientUnits="userSpaceOnUse">
<stop stop-color="#F8AC32"/>
<stop offset="0.520833" stop-color="#FAE373"/>
<stop offset="0.927083" stop-color="#F8AE30"/>
</linearGradient>
</defs>
</svg>
