<svg width="157" height="91" viewBox="0 0 157 91" fill="none" xmlns="http://www.w3.org/2000/svg">
<path d="M48.6191 13.0236H107.169V59.9712L78.2265 76.7858L48.6191 59.9712V13.0236Z" fill="url(#paint0_linear_861_1623)"/>
<path d="M48.6191 13.0236H107.169V59.9712L78.2265 76.7858L48.6191 59.9712V13.0236Z" fill="url(#paint1_linear_861_1623)"/>
<path d="M48.6191 13.0236H107.169V59.9712L78.2265 76.7858L48.6191 59.9712V13.0236Z" fill="url(#paint2_linear_861_1623)"/>
<path d="M48.6191 13.0236H107.169V59.9712L78.2265 76.7858L48.6191 59.9712V13.0236Z" fill="url(#paint3_linear_861_1623)"/>
<path fill-rule="evenodd" clip-rule="evenodd" d="M150.063 16.4843H5.92578L20.8208 45.4695H27.0111L32.1703 56.3757H123.948L129.107 45.4695H134.937L150.063 16.4843Z" fill="url(#paint4_linear_861_1623)"/>
<path d="M13.9297 21.4216H141.802L136.76 30.8775L18.6114 30.5174L13.9297 21.4216Z" fill="url(#paint5_linear_861_1623)"/>
<path d="M21.4668 34.8281H134.385L131.396 41.0429H24.3254L21.4668 34.8281Z" fill="url(#paint6_linear_861_1623)"/>
<path d="M32.2734 45.4692H124.304L121.315 51.684H35.1321L32.2734 45.4692Z" fill="url(#paint7_linear_861_1623)"/>
<path d="M39.9316 4.10193H116.258V65.0181L78.5287 86.8355L39.9316 65.0181V4.10193Z" fill="url(#paint8_linear_861_1623)"/>
<path d="M39.9316 4.10193H116.258V65.0181L78.5287 86.8355L39.9316 65.0181V4.10193Z" fill="url(#paint9_linear_861_1623)"/>
<path d="M39.9316 4.10193H116.258V65.0181L78.5287 86.8355L39.9316 65.0181V4.10193Z" fill="url(#paint10_linear_861_1623)"/>
<path d="M39.9316 4.10193H116.258V65.0181L78.5287 86.8355L39.9316 65.0181V4.10193Z" fill="url(#paint11_linear_861_1623)"/>
<path d="M44.7852 8.95813H111.175V62.308L78.3574 81.4155L44.7852 62.308V8.95813Z" fill="url(#paint12_linear_861_1623)"/>
<path d="M44.7852 8.95813H111.175V62.308L78.3574 81.4155L44.7852 62.308V8.95813Z" fill="url(#paint13_linear_861_1623)"/>
<path d="M44.7852 8.95813H111.175V62.308L78.3574 81.4155L44.7852 62.308V8.95813Z" fill="url(#paint14_linear_861_1623)"/>
<path d="M44.7852 8.95813H111.175V62.308L78.3574 81.4155L44.7852 62.308V8.95813Z" fill="url(#paint15_linear_861_1623)"/>
<path d="M48.6191 13.0236H107.169V59.9712L78.2265 76.7858L48.6191 59.9712V13.0236Z" fill="url(#paint16_linear_861_1623)"/>
<path d="M48.6191 13.0236H107.169V59.9712L78.2265 76.7858L48.6191 59.9712V13.0236Z" fill="url(#paint17_linear_861_1623)"/>
<path d="M48.6191 13.0236H107.169V59.9712L78.2265 76.7858L48.6191 59.9712V13.0236Z" fill="url(#paint18_linear_861_1623)"/>
<path d="M48.6191 13.0236H107.169V59.9712L78.2265 76.7858L48.6191 59.9712V13.0236Z" fill="url(#paint19_linear_861_1623)"/>
<path d="M53.1699 17.4946H101.703V56.8131L77.712 70.8952L53.1699 56.8131V17.4946Z" fill="url(#paint20_linear_861_1623)"/>
<path d="M53.1699 17.4946H101.703V56.8131L77.712 70.8952L53.1699 56.8131V17.4946Z" fill="url(#paint21_linear_861_1623)"/>
<path d="M53.1699 17.4946H101.703V56.8131L77.712 70.8952L53.1699 56.8131V17.4946Z" fill="url(#paint22_linear_861_1623)"/>
<path d="M53.1699 17.4946H101.703V56.8131L77.712 70.8952L53.1699 56.8131V17.4946Z" fill="url(#paint23_linear_861_1623)"/>
<path fill-rule="evenodd" clip-rule="evenodd" d="M78.8416 90.9844L36.6229 67.1198V59.977H30.1842L25.0249 49.0707H18.9166L0.320312 12.8829H36.6229V0.501221H120.152V12.8829H156.298L137.414 49.0707H131.682L126.523 59.977H120.152V67.0963L78.8416 90.9844ZM129.402 45.4694H135.231L150.357 16.4842H116.551V4.10253H40.2242V16.4842H6.21997L21.115 45.4694H27.3052L32.4645 56.3756H40.2242V65.0187L78.8213 86.8361L116.551 65.0187V56.3756H124.242L129.402 45.4694Z" fill="url(#paint24_linear_861_1623)"/>
<defs>
<linearGradient id="paint0_linear_861_1623" x1="77.8939" y1="13.0236" x2="77.8939" y2="76.7858" gradientUnits="userSpaceOnUse">
<stop stop-color="#1C0A00"/>
<stop offset="0.25" stop-color="#2C1002"/>
<stop offset="0.5" stop-color="#421A06"/>
<stop offset="0.75" stop-color="#2C1002"/>
<stop offset="1" stop-color="#170800"/>
</linearGradient>
<linearGradient id="paint1_linear_861_1623" x1="77.8939" y1="13.0236" x2="77.8939" y2="76.7858" gradientUnits="userSpaceOnUse">
<stop stop-color="#1C0A00"/>
<stop offset="0.25" stop-color="#2C1002"/>
<stop offset="0.5" stop-color="#421A06"/>
<stop offset="0.75" stop-color="#2C1002"/>
<stop offset="1" stop-color="#170800"/>
</linearGradient>
<linearGradient id="paint2_linear_861_1623" x1="77.8939" y1="13.0236" x2="77.8939" y2="76.7858" gradientUnits="userSpaceOnUse">
<stop stop-color="#1C0A00"/>
<stop offset="0.25" stop-color="#2C1002"/>
<stop offset="0.5" stop-color="#421A06"/>
<stop offset="0.75" stop-color="#2C1002"/>
<stop offset="1" stop-color="#170800"/>
</linearGradient>
<linearGradient id="paint3_linear_861_1623" x1="77.8939" y1="13.0236" x2="77.8939" y2="76.7858" gradientUnits="userSpaceOnUse">
<stop stop-color="#1C0A00"/>
<stop offset="0.25" stop-color="#2C1002"/>
<stop offset="0.5" stop-color="#421A06"/>
<stop offset="0.75" stop-color="#2C1002"/>
<stop offset="1" stop-color="#170800"/>
</linearGradient>
<linearGradient id="paint4_linear_861_1623" x1="77.9942" y1="16.4843" x2="77.9942" y2="56.3757" gradientUnits="userSpaceOnUse">
<stop stop-color="#1C0A00"/>
<stop offset="0.25" stop-color="#2C1002"/>
<stop offset="0.5" stop-color="#421A06"/>
<stop offset="0.75" stop-color="#2C1002"/>
<stop offset="1" stop-color="#170800"/>
</linearGradient>
<linearGradient id="paint5_linear_861_1623" x1="13.9297" y1="21.1307" x2="14.597" y2="34.8478" gradientUnits="userSpaceOnUse">
<stop stop-color="#646782"/>
<stop offset="0.494792" stop-color="#F6F6F6"/>
<stop offset="0.927083" stop-color="#C1C0CC"/>
</linearGradient>
<linearGradient id="paint6_linear_861_1623" x1="21.4668" y1="34.6369" x2="21.7936" y2="43.6617" gradientUnits="userSpaceOnUse">
<stop stop-color="#646782"/>
<stop offset="0.494792" stop-color="#F6F6F6"/>
<stop offset="0.927083" stop-color="#C1C0CC"/>
</linearGradient>
<linearGradient id="paint7_linear_861_1623" x1="32.2734" y1="45.278" x2="32.6741" y2="54.2969" gradientUnits="userSpaceOnUse">
<stop stop-color="#646782"/>
<stop offset="0.494792" stop-color="#F6F6F6"/>
<stop offset="0.927083" stop-color="#C1C0CC"/>
</linearGradient>
<linearGradient id="paint8_linear_861_1623" x1="78.095" y1="4.10193" x2="78.095" y2="86.8355" gradientUnits="userSpaceOnUse">
<stop stop-color="#1C0A00"/>
<stop offset="0.25" stop-color="#2C1002"/>
<stop offset="0.5" stop-color="#421A06"/>
<stop offset="0.75" stop-color="#2C1002"/>
<stop offset="1" stop-color="#170800"/>
</linearGradient>
<linearGradient id="paint9_linear_861_1623" x1="78.095" y1="4.10193" x2="78.095" y2="86.8355" gradientUnits="userSpaceOnUse">
<stop stop-color="#1C0A00"/>
<stop offset="0.25" stop-color="#2C1002"/>
<stop offset="0.5" stop-color="#421A06"/>
<stop offset="0.75" stop-color="#2C1002"/>
<stop offset="1" stop-color="#170800"/>
</linearGradient>
<linearGradient id="paint10_linear_861_1623" x1="78.095" y1="4.10193" x2="78.095" y2="86.8355" gradientUnits="userSpaceOnUse">
<stop stop-color="#1C0A00"/>
<stop offset="0.25" stop-color="#2C1002"/>
<stop offset="0.5" stop-color="#421A06"/>
<stop offset="0.75" stop-color="#2C1002"/>
<stop offset="1" stop-color="#170800"/>
</linearGradient>
<linearGradient id="paint11_linear_861_1623" x1="78.095" y1="4.10193" x2="78.095" y2="86.8355" gradientUnits="userSpaceOnUse">
<stop stop-color="#1C0A00"/>
<stop offset="0.25" stop-color="#2C1002"/>
<stop offset="0.5" stop-color="#421A06"/>
<stop offset="0.75" stop-color="#2C1002"/>
<stop offset="1" stop-color="#170800"/>
</linearGradient>
<linearGradient id="paint12_linear_861_1623" x1="44.7852" y1="6.72867" x2="94.7002" y2="76.2475" gradientUnits="userSpaceOnUse">
<stop stop-color="#646782"/>
<stop offset="0.494792" stop-color="#F6F6F6"/>
<stop offset="0.927083" stop-color="#C1C0CC"/>
</linearGradient>
<linearGradient id="paint13_linear_861_1623" x1="44.7852" y1="6.72867" x2="94.7002" y2="76.2475" gradientUnits="userSpaceOnUse">
<stop stop-color="#646782"/>
<stop offset="0.494792" stop-color="#F6F6F6"/>
<stop offset="0.927083" stop-color="#C1C0CC"/>
</linearGradient>
<linearGradient id="paint14_linear_861_1623" x1="44.7852" y1="6.72867" x2="94.7002" y2="76.2475" gradientUnits="userSpaceOnUse">
<stop stop-color="#646782"/>
<stop offset="0.494792" stop-color="#F6F6F6"/>
<stop offset="0.927083" stop-color="#C1C0CC"/>
</linearGradient>
<linearGradient id="paint15_linear_861_1623" x1="44.7852" y1="6.72867" x2="94.7002" y2="76.2475" gradientUnits="userSpaceOnUse">
<stop stop-color="#646782"/>
<stop offset="0.494792" stop-color="#F6F6F6"/>
<stop offset="0.927083" stop-color="#C1C0CC"/>
</linearGradient>
<linearGradient id="paint16_linear_861_1623" x1="77.8939" y1="13.0236" x2="77.8939" y2="76.7858" gradientUnits="userSpaceOnUse">
<stop stop-color="#1C0A00"/>
<stop offset="0.25" stop-color="#2C1002"/>
<stop offset="0.5" stop-color="#421A06"/>
<stop offset="0.75" stop-color="#2C1002"/>
<stop offset="1" stop-color="#170800"/>
</linearGradient>
<linearGradient id="paint17_linear_861_1623" x1="77.8939" y1="13.0236" x2="77.8939" y2="76.7858" gradientUnits="userSpaceOnUse">
<stop stop-color="#1C0A00"/>
<stop offset="0.25" stop-color="#2C1002"/>
<stop offset="0.5" stop-color="#421A06"/>
<stop offset="0.75" stop-color="#2C1002"/>
<stop offset="1" stop-color="#170800"/>
</linearGradient>
<linearGradient id="paint18_linear_861_1623" x1="77.8939" y1="13.0236" x2="77.8939" y2="76.7858" gradientUnits="userSpaceOnUse">
<stop stop-color="#1C0A00"/>
<stop offset="0.25" stop-color="#2C1002"/>
<stop offset="0.5" stop-color="#421A06"/>
<stop offset="0.75" stop-color="#2C1002"/>
<stop offset="1" stop-color="#170800"/>
</linearGradient>
<linearGradient id="paint19_linear_861_1623" x1="77.8939" y1="13.0236" x2="77.8939" y2="76.7858" gradientUnits="userSpaceOnUse">
<stop stop-color="#1C0A00"/>
<stop offset="0.25" stop-color="#2C1002"/>
<stop offset="0.5" stop-color="#421A06"/>
<stop offset="0.75" stop-color="#2C1002"/>
<stop offset="1" stop-color="#170800"/>
</linearGradient>
<linearGradient id="paint20_linear_861_1623" x1="53.1699" y1="15.8515" x2="90.0516" y2="66.8021" gradientUnits="userSpaceOnUse">
<stop stop-color="#646782"/>
<stop offset="0.494792" stop-color="#F6F6F6"/>
<stop offset="0.927083" stop-color="#C1C0CC"/>
</linearGradient>
<linearGradient id="paint21_linear_861_1623" x1="53.1699" y1="15.8515" x2="90.0516" y2="66.8021" gradientUnits="userSpaceOnUse">
<stop stop-color="#646782"/>
<stop offset="0.494792" stop-color="#F6F6F6"/>
<stop offset="0.927083" stop-color="#C1C0CC"/>
</linearGradient>
<linearGradient id="paint22_linear_861_1623" x1="53.1699" y1="15.8515" x2="90.0516" y2="66.8021" gradientUnits="userSpaceOnUse">
<stop stop-color="#646782"/>
<stop offset="0.494792" stop-color="#F6F6F6"/>
<stop offset="0.927083" stop-color="#C1C0CC"/>
</linearGradient>
<linearGradient id="paint23_linear_861_1623" x1="53.1699" y1="15.8515" x2="90.0516" y2="66.8021" gradientUnits="userSpaceOnUse">
<stop stop-color="#646782"/>
<stop offset="0.494792" stop-color="#F6F6F6"/>
<stop offset="0.927083" stop-color="#C1C0CC"/>
</linearGradient>
<linearGradient id="paint24_linear_861_1623" x1="0.320313" y1="-2.28288" x2="44.1488" y2="112.559" gradientUnits="userSpaceOnUse">
<stop stop-color="#646782"/>
<stop offset="0.494792" stop-color="#F6F6F6"/>
<stop offset="0.927083" stop-color="#C1C0CC"/>
</linearGradient>
</defs>
</svg>
