<svg width="84" height="90" viewBox="0 0 84 90" fill="none" xmlns="http://www.w3.org/2000/svg">
<path d="M11.959 11.6565H71.9907V59.7927L42.3159 77.0329L11.959 59.7927V11.6565Z" fill="#070707"/>
<path d="M11.959 11.6565H71.9907V59.7927L42.3159 77.0329L11.959 59.7927V11.6565Z" fill="#070707"/>
<path d="M11.959 11.6565H71.9907V59.7927L42.3159 77.0329L11.959 59.7927V11.6565Z" fill="#070707"/>
<path d="M11.959 11.6565H71.9907V59.7927L42.3159 77.0329L11.959 59.7927V11.6565Z" fill="#070707"/>
<path d="M11.959 11.6565H71.9907V59.7927L42.3159 77.0329L11.959 59.7927V11.6565Z" stroke="#D9D9D9" stroke-width="2.00796"/>
<path d="M3.04883 2.50879H81.3078V64.9671L42.6229 87.3368L3.04883 64.9671V2.50879Z" fill="#070707"/>
<path d="M3.04883 2.50879H81.3078V64.9671L42.6229 87.3368L3.04883 64.9671V2.50879Z" fill="#070707"/>
<path d="M3.04883 2.50879H81.3078V64.9671L42.6229 87.3368L3.04883 64.9671V2.50879Z" fill="#070707"/>
<path d="M3.04883 2.50879H81.3078V64.9671L42.6229 87.3368L3.04883 64.9671V2.50879Z" fill="#070707"/>
<path d="M3.04883 2.50879H81.3078V64.9671L42.6229 87.3368L3.04883 64.9671V2.50879Z" stroke="#D9D9D9" stroke-width="4.33075"/>
<path d="M8.02734 7.48792H76.0981V62.1883L42.4495 81.7796L8.02734 62.1883V7.48792Z" fill="#D9D9D9"/>
<path d="M8.02734 7.48792H76.0981V62.1883L42.4495 81.7796L8.02734 62.1883V7.48792Z" fill="#D9D9D9"/>
<path d="M8.02734 7.48792H76.0981V62.1883L42.4495 81.7796L8.02734 62.1883V7.48792Z" fill="#D9D9D9"/>
<path d="M8.02734 7.48792H76.0981V62.1883L42.4495 81.7796L8.02734 62.1883V7.48792Z" fill="#D9D9D9"/>
<path d="M8.02734 7.48792H76.0981V62.1883L42.4495 81.7796L8.02734 62.1883V7.48792Z" stroke="#D9D9D9" stroke-width="2.00796"/>
<path d="M11.959 11.6564H71.9907V59.7926L42.3159 77.0328L11.959 59.7926V11.6564Z" fill="#070707"/>
<path d="M11.959 11.6564H71.9907V59.7926L42.3159 77.0328L11.959 59.7926V11.6564Z" fill="#070707"/>
<path d="M11.959 11.6564H71.9907V59.7926L42.3159 77.0328L11.959 59.7926V11.6564Z" fill="#070707"/>
<path d="M11.959 11.6564H71.9907V59.7926L42.3159 77.0328L11.959 59.7926V11.6564Z" fill="#070707"/>
<path d="M11.959 11.6564H71.9907V59.7926L42.3159 77.0328L11.959 59.7926V11.6564Z" stroke="#D9D9D9" stroke-width="2.00796"/>
<path d="M18.0703 17.9005H66.0803V56.1738L42.348 69.8815L18.0703 56.1738V17.9005Z" fill="#D9D9D9"/>
<path d="M18.0703 17.9005H66.0803V56.1738L42.348 69.8815L18.0703 56.1738V17.9005Z" fill="#D9D9D9"/>
<path d="M18.0703 17.9005H66.0803V56.1738L42.348 69.8815L18.0703 56.1738V17.9005Z" fill="#D9D9D9"/>
<path d="M18.0703 17.9005H66.0803V56.1738L42.348 69.8815L18.0703 56.1738V17.9005Z" fill="#D9D9D9"/>
<path d="M18.0703 17.9005H66.0803V56.1738L42.348 69.8815L18.0703 56.1738V17.9005Z" stroke="#D9D9D9" stroke-width="2.00796"/>
</svg>
