<svg width="157" height="91" viewBox="0 0 157 91" fill="none" xmlns="http://www.w3.org/2000/svg">
<path d="M49.1738 12.5255H107.727V59.4763L78.7832 76.292L49.1738 59.4763V12.5255Z" fill="url(#paint0_linear_861_1588)"/>
<path d="M49.1738 12.5255H107.727V59.4763L78.7832 76.292L49.1738 59.4763V12.5255Z" fill="url(#paint1_linear_861_1588)"/>
<path d="M49.1738 12.5255H107.727V59.4763L78.7832 76.292L49.1738 59.4763V12.5255Z" fill="url(#paint2_linear_861_1588)"/>
<path d="M49.1738 12.5255H107.727V59.4763L78.7832 76.292L49.1738 59.4763V12.5255Z" fill="url(#paint3_linear_861_1588)"/>
<path fill-rule="evenodd" clip-rule="evenodd" d="M150.621 15.9863H6.47461L21.3706 44.9735H27.5613L32.7209 55.8804H124.505L129.665 44.9735H135.495L150.621 15.9863Z" fill="url(#paint4_linear_861_1588)"/>
<path d="M14.4785 20.9241H142.359L137.317 30.3806L19.1605 30.0205L14.4785 20.9241Z" fill="url(#paint5_linear_861_1588)"/>
<path d="M22.0156 34.3308H134.941L131.953 40.546H24.8744L22.0156 34.3308Z" fill="url(#paint6_linear_861_1588)"/>
<path d="M32.8223 44.9725H124.859L121.87 51.1877H35.6811L32.8223 44.9725Z" fill="url(#paint7_linear_861_1588)"/>
<path d="M40.4824 3.60315H116.814V64.5234L79.082 86.3423L40.4824 64.5234V3.60315Z" fill="url(#paint8_linear_861_1588)"/>
<path d="M40.4824 3.60315H116.814V64.5234L79.082 86.3423L40.4824 64.5234V3.60315Z" fill="url(#paint9_linear_861_1588)"/>
<path d="M40.4824 3.60315H116.814V64.5234L79.082 86.3423L40.4824 64.5234V3.60315Z" fill="url(#paint10_linear_861_1588)"/>
<path d="M40.4824 3.60315H116.814V64.5234L79.082 86.3423L40.4824 64.5234V3.60315Z" fill="url(#paint11_linear_861_1588)"/>
<path d="M45.3379 8.45959H111.732V61.813L78.9124 80.9218L45.3379 61.813V8.45959Z" fill="url(#paint12_linear_861_1588)"/>
<path d="M45.3379 8.45959H111.732V61.813L78.9124 80.9218L45.3379 61.813V8.45959Z" fill="url(#paint13_linear_861_1588)"/>
<path d="M45.3379 8.45959H111.732V61.813L78.9124 80.9218L45.3379 61.813V8.45959Z" fill="url(#paint14_linear_861_1588)"/>
<path d="M45.3379 8.45959H111.732V61.813L78.9124 80.9218L45.3379 61.813V8.45959Z" fill="url(#paint15_linear_861_1588)"/>
<path d="M49.1719 12.5251H107.725V59.476L78.7812 76.2916L49.1719 59.476V12.5251Z" fill="url(#paint16_linear_861_1588)"/>
<path d="M49.1719 12.5251H107.725V59.476L78.7812 76.2916L49.1719 59.476V12.5251Z" fill="url(#paint17_linear_861_1588)"/>
<path d="M49.1719 12.5251H107.725V59.476L78.7812 76.2916L49.1719 59.476V12.5251Z" fill="url(#paint18_linear_861_1588)"/>
<path d="M49.1719 12.5251H107.725V59.476L78.7812 76.2916L49.1719 59.476V12.5251Z" fill="url(#paint19_linear_861_1588)"/>
<path d="M53.7246 16.9963H102.26V56.3174L78.2683 70.4005L53.7246 56.3174V16.9963Z" fill="url(#paint20_linear_861_1588)"/>
<path d="M53.7246 16.9963H102.26V56.3174L78.2683 70.4005L53.7246 56.3174V16.9963Z" fill="url(#paint21_linear_861_1588)"/>
<path d="M53.7246 16.9963H102.26V56.3174L78.2683 70.4005L53.7246 56.3174V16.9963Z" fill="url(#paint22_linear_861_1588)"/>
<path d="M53.7246 16.9963H102.26V56.3174L78.2683 70.4005L53.7246 56.3174V16.9963Z" fill="url(#paint23_linear_861_1588)"/>
<path fill-rule="evenodd" clip-rule="evenodd" d="M79.3976 90.4922L37.1761 66.626V59.4827H30.737L25.5774 48.5756H19.4686L0.871094 12.3855H37.1761V0.00292969H120.711V12.3855H156.86L137.974 48.5756H132.242L127.082 59.4827H120.711V66.6024L79.3976 90.4922ZM129.961 44.9741H135.791L150.918 15.987H117.11V3.60448H40.7777V15.987H6.77114L21.6671 44.9741H27.8578L33.0175 55.8811H40.7777V64.5247L79.3773 86.3436L117.11 64.5247V55.8811H124.802L129.961 44.9741Z" fill="url(#paint24_linear_861_1588)"/>
<defs>
<linearGradient id="paint0_linear_861_1588" x1="78.4505" y1="12.5255" x2="78.4505" y2="76.292" gradientUnits="userSpaceOnUse">
<stop stop-color="#1C0A00"/>
<stop offset="0.25" stop-color="#2C1002"/>
<stop offset="0.5" stop-color="#421A06"/>
<stop offset="0.75" stop-color="#2C1002"/>
<stop offset="1" stop-color="#170800"/>
</linearGradient>
<linearGradient id="paint1_linear_861_1588" x1="78.4505" y1="12.5255" x2="78.4505" y2="76.292" gradientUnits="userSpaceOnUse">
<stop stop-color="#1C0A00"/>
<stop offset="0.25" stop-color="#2C1002"/>
<stop offset="0.5" stop-color="#421A06"/>
<stop offset="0.75" stop-color="#2C1002"/>
<stop offset="1" stop-color="#170800"/>
</linearGradient>
<linearGradient id="paint2_linear_861_1588" x1="78.4505" y1="12.5255" x2="78.4505" y2="76.292" gradientUnits="userSpaceOnUse">
<stop stop-color="#1C0A00"/>
<stop offset="0.25" stop-color="#2C1002"/>
<stop offset="0.5" stop-color="#421A06"/>
<stop offset="0.75" stop-color="#2C1002"/>
<stop offset="1" stop-color="#170800"/>
</linearGradient>
<linearGradient id="paint3_linear_861_1588" x1="78.4505" y1="12.5255" x2="78.4505" y2="76.292" gradientUnits="userSpaceOnUse">
<stop stop-color="#1C0A00"/>
<stop offset="0.25" stop-color="#2C1002"/>
<stop offset="0.5" stop-color="#421A06"/>
<stop offset="0.75" stop-color="#2C1002"/>
<stop offset="1" stop-color="#170800"/>
</linearGradient>
<linearGradient id="paint4_linear_861_1588" x1="78.5479" y1="15.9863" x2="78.5479" y2="55.8804" gradientUnits="userSpaceOnUse">
<stop stop-color="#1C0A00"/>
<stop offset="0.25" stop-color="#2C1002"/>
<stop offset="0.5" stop-color="#421A06"/>
<stop offset="0.75" stop-color="#2C1002"/>
<stop offset="1" stop-color="#170800"/>
</linearGradient>
<linearGradient id="paint5_linear_861_1588" x1="14.4785" y1="20.6331" x2="15.1459" y2="34.3511" gradientUnits="userSpaceOnUse">
<stop stop-color="#9A4248"/>
<stop offset="0.494792" stop-color="#C69494"/>
<stop offset="0.927083" stop-color="#B16A6A"/>
</linearGradient>
<linearGradient id="paint6_linear_861_1588" x1="22.0156" y1="34.1396" x2="22.3424" y2="43.165" gradientUnits="userSpaceOnUse">
<stop stop-color="#9A4248"/>
<stop offset="0.494792" stop-color="#C69494"/>
<stop offset="0.927083" stop-color="#B16A6A"/>
</linearGradient>
<linearGradient id="paint7_linear_861_1588" x1="32.8223" y1="44.7813" x2="33.223" y2="53.8008" gradientUnits="userSpaceOnUse">
<stop stop-color="#9A4248"/>
<stop offset="0.494792" stop-color="#C69494"/>
<stop offset="0.927083" stop-color="#B16A6A"/>
</linearGradient>
<linearGradient id="paint8_linear_861_1588" x1="78.6483" y1="3.60315" x2="78.6483" y2="86.3423" gradientUnits="userSpaceOnUse">
<stop stop-color="#1C0A00"/>
<stop offset="0.25" stop-color="#2C1002"/>
<stop offset="0.5" stop-color="#421A06"/>
<stop offset="0.75" stop-color="#2C1002"/>
<stop offset="1" stop-color="#170800"/>
</linearGradient>
<linearGradient id="paint9_linear_861_1588" x1="78.6483" y1="3.60315" x2="78.6483" y2="86.3423" gradientUnits="userSpaceOnUse">
<stop stop-color="#1C0A00"/>
<stop offset="0.25" stop-color="#2C1002"/>
<stop offset="0.5" stop-color="#421A06"/>
<stop offset="0.75" stop-color="#2C1002"/>
<stop offset="1" stop-color="#170800"/>
</linearGradient>
<linearGradient id="paint10_linear_861_1588" x1="78.6483" y1="3.60315" x2="78.6483" y2="86.3423" gradientUnits="userSpaceOnUse">
<stop stop-color="#1C0A00"/>
<stop offset="0.25" stop-color="#2C1002"/>
<stop offset="0.5" stop-color="#421A06"/>
<stop offset="0.75" stop-color="#2C1002"/>
<stop offset="1" stop-color="#170800"/>
</linearGradient>
<linearGradient id="paint11_linear_861_1588" x1="78.6483" y1="3.60315" x2="78.6483" y2="86.3423" gradientUnits="userSpaceOnUse">
<stop stop-color="#1C0A00"/>
<stop offset="0.25" stop-color="#2C1002"/>
<stop offset="0.5" stop-color="#421A06"/>
<stop offset="0.75" stop-color="#2C1002"/>
<stop offset="1" stop-color="#170800"/>
</linearGradient>
<linearGradient id="paint12_linear_861_1588" x1="45.3379" y1="6.22999" x2="95.2563" y2="75.7534" gradientUnits="userSpaceOnUse">
<stop stop-color="#9A4248"/>
<stop offset="0.494792" stop-color="#C69494"/>
<stop offset="0.927083" stop-color="#B16A6A"/>
</linearGradient>
<linearGradient id="paint13_linear_861_1588" x1="45.3379" y1="6.22999" x2="95.2563" y2="75.7534" gradientUnits="userSpaceOnUse">
<stop stop-color="#9A4248"/>
<stop offset="0.494792" stop-color="#C69494"/>
<stop offset="0.927083" stop-color="#B16A6A"/>
</linearGradient>
<linearGradient id="paint14_linear_861_1588" x1="45.3379" y1="6.22999" x2="95.2563" y2="75.7534" gradientUnits="userSpaceOnUse">
<stop stop-color="#9A4248"/>
<stop offset="0.494792" stop-color="#C69494"/>
<stop offset="0.927083" stop-color="#B16A6A"/>
</linearGradient>
<linearGradient id="paint15_linear_861_1588" x1="45.3379" y1="6.22999" x2="95.2563" y2="75.7534" gradientUnits="userSpaceOnUse">
<stop stop-color="#9A4248"/>
<stop offset="0.494792" stop-color="#C69494"/>
<stop offset="0.927083" stop-color="#B16A6A"/>
</linearGradient>
<linearGradient id="paint16_linear_861_1588" x1="78.4486" y1="12.5251" x2="78.4486" y2="76.2916" gradientUnits="userSpaceOnUse">
<stop stop-color="#1C0A00"/>
<stop offset="0.25" stop-color="#2C1002"/>
<stop offset="0.5" stop-color="#421A06"/>
<stop offset="0.75" stop-color="#2C1002"/>
<stop offset="1" stop-color="#170800"/>
</linearGradient>
<linearGradient id="paint17_linear_861_1588" x1="78.4486" y1="12.5251" x2="78.4486" y2="76.2916" gradientUnits="userSpaceOnUse">
<stop stop-color="#1C0A00"/>
<stop offset="0.25" stop-color="#2C1002"/>
<stop offset="0.5" stop-color="#421A06"/>
<stop offset="0.75" stop-color="#2C1002"/>
<stop offset="1" stop-color="#170800"/>
</linearGradient>
<linearGradient id="paint18_linear_861_1588" x1="78.4486" y1="12.5251" x2="78.4486" y2="76.2916" gradientUnits="userSpaceOnUse">
<stop stop-color="#1C0A00"/>
<stop offset="0.25" stop-color="#2C1002"/>
<stop offset="0.5" stop-color="#421A06"/>
<stop offset="0.75" stop-color="#2C1002"/>
<stop offset="1" stop-color="#170800"/>
</linearGradient>
<linearGradient id="paint19_linear_861_1588" x1="78.4486" y1="12.5251" x2="78.4486" y2="76.2916" gradientUnits="userSpaceOnUse">
<stop stop-color="#1C0A00"/>
<stop offset="0.25" stop-color="#2C1002"/>
<stop offset="0.5" stop-color="#421A06"/>
<stop offset="0.75" stop-color="#2C1002"/>
<stop offset="1" stop-color="#170800"/>
</linearGradient>
<linearGradient id="paint20_linear_861_1588" x1="53.7246" y1="15.3531" x2="90.6088" y2="66.3071" gradientUnits="userSpaceOnUse">
<stop stop-color="#9A4248"/>
<stop offset="0.494792" stop-color="#C69494"/>
<stop offset="0.927083" stop-color="#B16A6A"/>
</linearGradient>
<linearGradient id="paint21_linear_861_1588" x1="53.7246" y1="15.3531" x2="90.6088" y2="66.3071" gradientUnits="userSpaceOnUse">
<stop stop-color="#9A4248"/>
<stop offset="0.494792" stop-color="#C69494"/>
<stop offset="0.927083" stop-color="#B16A6A"/>
</linearGradient>
<linearGradient id="paint22_linear_861_1588" x1="53.7246" y1="15.3531" x2="90.6088" y2="66.3071" gradientUnits="userSpaceOnUse">
<stop stop-color="#9A4248"/>
<stop offset="0.494792" stop-color="#C69494"/>
<stop offset="0.927083" stop-color="#B16A6A"/>
</linearGradient>
<linearGradient id="paint23_linear_861_1588" x1="53.7246" y1="15.3531" x2="90.6088" y2="66.3071" gradientUnits="userSpaceOnUse">
<stop stop-color="#9A4248"/>
<stop offset="0.494792" stop-color="#C69494"/>
<stop offset="0.927083" stop-color="#B16A6A"/>
</linearGradient>
<linearGradient id="paint24_linear_861_1588" x1="0.871094" y1="-2.78136" x2="44.7025" y2="112.069" gradientUnits="userSpaceOnUse">
<stop stop-color="#9A4248"/>
<stop offset="0.494792" stop-color="#C69494"/>
<stop offset="0.927083" stop-color="#B16A6A"/>
</linearGradient>
</defs>
</svg>
